<svg width="1440" height="305" viewBox="0 0 1440 305" fill="none" xmlns="http://www.w3.org/2000/svg">
<mask id="path-1-outside-1_167_122" maskUnits="userSpaceOnUse" x="-2" y="0" width="1551" height="306" fill="black">
<rect fill="white" x="-2" width="1551" height="306"/>
<path fill-rule="evenodd" clip-rule="evenodd" d="M602.088 34.5461C584.742 52.4452 564.832 73.7776 557.846 81.9511C550.859 90.1221 541.398 99.6741 536.822 103.179L528.505 109.55L512.66 95.7533C487.885 74.1784 462.83 55.7892 455.795 54.0177C450.665 52.726 447.47 54.2652 439.924 61.6602C434.636 66.8421 427.912 70.9212 424.659 70.9212C417.952 70.9212 401.455 86.6174 389.107 104.744C384.565 111.414 379.714 116.869 378.328 116.869C376.939 116.869 369.856 112.848 362.587 107.934C355.316 103.021 347.947 99.0002 346.213 99.0002C344.476 99.0002 334.732 107.792 324.558 118.538C305.201 138.987 240.288 192.621 215.06 209.011C206.975 214.265 191.526 222.252 180.732 226.762C157.264 236.567 151.013 240.705 126.929 262.369C116.786 271.495 106.015 280.01 102.996 281.289C99.9745 282.571 77.4756 284.322 52.9955 285.182C23.304 286.226 6.79227 287.844 3.39939 290.05C-1.36438 293.141 -1.28299 293.238 4.67109 291.581C8.16825 290.606 31.0588 289.072 55.5389 288.171C103.301 286.415 109.039 284.95 121.667 271.293C135.857 255.949 159.973 239.293 181.521 229.953C194.065 224.518 211.767 215.023 220.859 208.856C251.121 188.33 310.252 139.066 327.29 120.187C336.538 109.938 345.005 101.553 346.106 101.553C347.207 101.553 354.385 105.737 362.056 110.85C382.016 124.149 379.875 128.754 359.474 116.402C355.277 113.862 350.572 111.779 349.018 111.774C345.427 111.761 269.184 187.23 269.184 190.793C269.184 192.276 274.794 193.448 281.901 193.448C288.895 193.448 294.613 194.308 294.605 195.362C294.597 196.417 291.772 201.872 288.325 207.487C281.837 218.06 279.912 229.185 284.571 229.185C295.365 229.185 324.317 203.686 354.184 167.878C375.157 142.729 384.524 128.399 382.939 123.883C381.451 119.643 399.843 93.3844 412.061 82.306C417.418 77.4483 424.084 73.4738 426.874 73.4738C429.664 73.4738 436.518 69.3284 442.109 64.2588C447.697 59.1918 453.709 55.6028 455.469 56.2844C460.871 58.375 498.58 87.2581 512.919 100.287C524.194 110.533 525.786 112.994 522.388 114.903C516.076 118.449 503.682 109.338 481.6 84.9275C459.635 60.6443 453.442 57.747 455.772 72.8357C459.63 97.8183 460.594 155.176 457.351 166.801C452.883 182.819 436.01 199.365 409.65 213.575C398.23 219.732 387.039 226.821 384.778 229.328C377.542 237.353 388.092 240.37 416.772 238.484C477.261 234.507 548.791 215.931 550.879 203.658C551.238 201.552 544.541 190.066 535.996 178.132C518.97 154.357 508.323 135.485 513.797 138.786C515.648 139.901 542.089 159.549 572.557 182.446C638.316 231.873 642.531 233.869 620.952 205.379C614.388 196.71 591.777 172.149 570.71 150.796L532.404 111.975L554.033 89.3206C629.775 9.98718 635.236 4.63689 638.993 6.08424C641.127 6.90618 652.002 18.7836 663.157 32.4759C688.484 63.5645 712.578 88.2051 736.966 107.96C749.254 117.915 754.424 123.526 751.782 124.039C738.757 126.569 710.922 101.755 671.444 52.4146C647.505 22.4977 638.537 14.7121 637.627 23.0593C637.144 27.4881 637.388 31.8148 640.305 70.1937C643.014 105.849 643.828 108.425 661.794 138.237C666.759 146.477 674.882 165.43 679.842 180.355C690.552 212.572 696.949 224.079 704.147 224.079C709.452 224.079 710.152 223 712.842 210.678C714.933 201.09 721.228 201.677 733.996 212.646C739.752 217.588 749.256 223.332 755.121 225.409C769.128 230.369 790.726 230.308 797.087 225.289C801.841 221.54 801.564 220.996 789.577 210.612C758.234 183.459 759.87 185.721 763.113 173.989C765.722 164.549 765.458 162.745 760.531 156.46C754.46 148.713 755.213 144.948 762.83 144.948C769.649 144.948 771.526 138.729 766.765 131.909C762.996 126.51 763.308 125.997 774.805 118.689C781.382 114.507 795.472 101.923 806.114 90.7195C827.791 67.904 827.783 67.904 843.99 84.9939C854.222 95.7839 874.241 110.334 876.179 108.386C876.899 107.664 875.009 105.739 871.977 104.111C868.943 102.482 858.454 93.7724 848.667 84.7591C838.88 75.7432 829.373 68.3686 827.539 68.3686C825.708 68.3686 813.484 79.0258 800.376 92.0545C787.27 105.081 772.836 117.28 768.304 119.166C760.381 122.459 759.593 122.214 747.979 112.843C720.15 90.3927 701.135 72.2486 683.451 51.2684C655.804 18.4722 640.175 2 636.701 2C635.01 2 619.431 16.647 602.088 34.5461ZM671.909 57.5964C712.397 107.123 735.115 127.079 751.003 127.079C760.027 127.079 765.145 130.959 765.145 137.8C765.145 140.718 763.258 142.395 759.979 142.395C752.301 142.395 751.237 148.863 757.466 157.645C762.289 164.44 762.617 166.52 760.091 174.201C756.319 185.675 759.053 190.655 776.033 203.247C800.213 221.175 801.065 226.701 779.619 226.52C762.647 226.377 750.619 221.968 736.804 210.829C718.629 196.177 712.588 196.309 709.506 211.434C705.492 231.137 696.326 219.74 682.332 177.637C677.339 162.622 668.867 143.521 663.501 135.186C648.085 111.253 647.353 109.229 645.336 84.9607C644.285 72.3252 642.589 52.9021 641.567 41.8007C640.221 27.2149 640.491 22.102 642.536 23.3707C644.092 24.3356 657.31 39.7382 671.909 57.5964ZM514.893 118.441C518.39 119.322 522.744 118.576 524.985 116.71C528.365 113.895 533.628 118.114 562.042 146.418C592.802 177.06 627.644 216.422 624.007 216.422C623.14 216.422 598.998 198.637 570.357 176.904C516.457 136.003 508.814 130.781 506.396 133.208C504.63 134.98 526.023 170.801 539.599 188.799L549.603 202.066L544.15 206.497C523.444 223.324 386.18 245.514 386.18 232.036C386.18 230.921 396.437 224.429 408.976 217.609C445.835 197.555 459.818 180.557 463.684 151.11C465.259 139.112 461.688 86.0073 458.3 71.0233C457.194 66.1248 463.178 70.9391 482.788 90.7169C497.061 105.114 511.51 117.589 514.893 118.441ZM828.729 85.9843C828.729 87.2479 831.581 94.4285 835.062 101.938C840.279 113.185 841.401 119.521 841.421 137.872C841.444 157.754 842.367 162.15 850.002 178.714C854.708 188.925 859.38 200.715 860.382 204.919C862.358 213.221 866.196 218.974 869.752 218.974C870.988 218.974 871.876 203.587 871.723 184.779C871.456 151.96 871.72 150.107 878.331 138.788C885.323 126.816 893.319 119.421 899.276 119.421C904.65 119.421 911.718 133.691 921.701 164.69C927.357 182.247 934.285 198.134 939.069 204.521C953.289 223.495 983.218 233.83 1016.61 231.303L1027.72 230.461L1008.14 213.869C997.193 204.595 981.898 188.067 973.456 176.396C965.149 164.912 953.511 151.743 947.59 147.128C941.669 142.515 930.587 133.244 922.962 126.528C912.081 116.94 907.163 114.298 900.072 114.232L891.043 114.145L897.047 109.127C900.349 106.365 904.97 104.105 907.315 104.105C912.056 104.105 962.901 153.147 982.47 176.598C998.73 196.082 1030.39 216.761 1065.02 230.507C1090 240.424 1113.6 253.496 1153.81 279.686C1192.93 305.169 1240.04 308.697 1364.11 295.438C1426.02 288.819 1502 289.409 1525.62 296.692C1547.94 303.569 1550.71 304.048 1543.37 299.752C1539.84 297.69 1527.82 293.937 1516.66 291.415C1492.93 286.055 1423.6 285.386 1382.75 290.124C1240.11 306.673 1196.01 303.724 1151.37 274.647C1113.2 249.785 1090.47 237.22 1067.74 228.409C1025.48 212.031 995.467 190.691 973.263 161.226C963.247 147.937 911.827 99.0002 907.877 99.0002C906.689 99.0002 902.516 101.527 898.604 104.616C889.834 111.539 873.117 112.902 864.337 107.409C860.84 105.221 852.149 98.9874 845.028 93.558C831.69 83.3908 828.729 82.015 828.729 85.9843ZM862.409 110.051C866.247 112.448 874.368 115.095 880.457 115.932L891.531 117.456L885.498 123.988C869.49 141.323 868.114 146.099 868.625 182.599C868.885 201.203 868.696 216.422 868.208 216.422C867.72 216.422 864.947 209.044 862.043 200.026C859.141 191.007 854.265 179.378 851.211 174.18C846.782 166.648 845.328 158.972 844.038 136.333C842.95 117.259 841.006 105.252 838.117 99.766C831.84 87.8452 832.644 87.5134 844.626 97.0704C850.57 101.813 858.574 107.654 862.409 110.051ZM361.087 120.871C368.178 124.478 375.579 126.811 377.535 126.058C383.667 123.697 381.607 127.363 363.126 151.72C332.367 192.253 291.805 229.764 285.533 223.472C284.823 222.76 287.15 216.69 290.703 209.984C300.506 191.48 298.969 187.773 282.536 190.295C277.991 190.992 274.27 190.745 274.27 189.744C274.27 188.246 345.18 115.444 347.477 114.587C347.874 114.436 353.998 117.267 361.087 120.871ZM932.406 138.678C947.831 151.618 962.489 166.523 968.448 175.332C973.972 183.495 988.002 199.066 999.625 209.93L1020.76 229.685L1000.41 227.936C971.335 225.44 962.044 222.474 950.484 211.99C937.808 200.498 933.179 191.464 923.049 158.454C918.486 143.59 912.254 129.058 908.544 124.631C897.365 111.299 905.423 116.042 932.406 138.678Z"/>
</mask>
<path fill-rule="evenodd" clip-rule="evenodd" d="M602.088 34.5461C584.742 52.4452 564.832 73.7776 557.846 81.9511C550.859 90.1221 541.398 99.6741 536.822 103.179L528.505 109.55L512.66 95.7533C487.885 74.1784 462.83 55.7892 455.795 54.0177C450.665 52.726 447.47 54.2652 439.924 61.6602C434.636 66.8421 427.912 70.9212 424.659 70.9212C417.952 70.9212 401.455 86.6174 389.107 104.744C384.565 111.414 379.714 116.869 378.328 116.869C376.939 116.869 369.856 112.848 362.587 107.934C355.316 103.021 347.947 99.0002 346.213 99.0002C344.476 99.0002 334.732 107.792 324.558 118.538C305.201 138.987 240.288 192.621 215.06 209.011C206.975 214.265 191.526 222.252 180.732 226.762C157.264 236.567 151.013 240.705 126.929 262.369C116.786 271.495 106.015 280.01 102.996 281.289C99.9745 282.571 77.4756 284.322 52.9955 285.182C23.304 286.226 6.79227 287.844 3.39939 290.05C-1.36438 293.141 -1.28299 293.238 4.67109 291.581C8.16825 290.606 31.0588 289.072 55.5389 288.171C103.301 286.415 109.039 284.95 121.667 271.293C135.857 255.949 159.973 239.293 181.521 229.953C194.065 224.518 211.767 215.023 220.859 208.856C251.121 188.33 310.252 139.066 327.29 120.187C336.538 109.938 345.005 101.553 346.106 101.553C347.207 101.553 354.385 105.737 362.056 110.85C382.016 124.149 379.875 128.754 359.474 116.402C355.277 113.862 350.572 111.779 349.018 111.774C345.427 111.761 269.184 187.23 269.184 190.793C269.184 192.276 274.794 193.448 281.901 193.448C288.895 193.448 294.613 194.308 294.605 195.362C294.597 196.417 291.772 201.872 288.325 207.487C281.837 218.06 279.912 229.185 284.571 229.185C295.365 229.185 324.317 203.686 354.184 167.878C375.157 142.729 384.524 128.399 382.939 123.883C381.451 119.643 399.843 93.3844 412.061 82.306C417.418 77.4483 424.084 73.4738 426.874 73.4738C429.664 73.4738 436.518 69.3284 442.109 64.2588C447.697 59.1918 453.709 55.6028 455.469 56.2844C460.871 58.375 498.58 87.2581 512.919 100.287C524.194 110.533 525.786 112.994 522.388 114.903C516.076 118.449 503.682 109.338 481.6 84.9275C459.635 60.6443 453.442 57.747 455.772 72.8357C459.63 97.8183 460.594 155.176 457.351 166.801C452.883 182.819 436.01 199.365 409.65 213.575C398.23 219.732 387.039 226.821 384.778 229.328C377.542 237.353 388.092 240.37 416.772 238.484C477.261 234.507 548.791 215.931 550.879 203.658C551.238 201.552 544.541 190.066 535.996 178.132C518.97 154.357 508.323 135.485 513.797 138.786C515.648 139.901 542.089 159.549 572.557 182.446C638.316 231.873 642.531 233.869 620.952 205.379C614.388 196.71 591.777 172.149 570.71 150.796L532.404 111.975L554.033 89.3206C629.775 9.98718 635.236 4.63689 638.993 6.08424C641.127 6.90618 652.002 18.7836 663.157 32.4759C688.484 63.5645 712.578 88.2051 736.966 107.96C749.254 117.915 754.424 123.526 751.782 124.039C738.757 126.569 710.922 101.755 671.444 52.4146C647.505 22.4977 638.537 14.7121 637.627 23.0593C637.144 27.4881 637.388 31.8148 640.305 70.1937C643.014 105.849 643.828 108.425 661.794 138.237C666.759 146.477 674.882 165.43 679.842 180.355C690.552 212.572 696.949 224.079 704.147 224.079C709.452 224.079 710.152 223 712.842 210.678C714.933 201.09 721.228 201.677 733.996 212.646C739.752 217.588 749.256 223.332 755.121 225.409C769.128 230.369 790.726 230.308 797.087 225.289C801.841 221.54 801.564 220.996 789.577 210.612C758.234 183.459 759.87 185.721 763.113 173.989C765.722 164.549 765.458 162.745 760.531 156.46C754.46 148.713 755.213 144.948 762.83 144.948C769.649 144.948 771.526 138.729 766.765 131.909C762.996 126.51 763.308 125.997 774.805 118.689C781.382 114.507 795.472 101.923 806.114 90.7195C827.791 67.904 827.783 67.904 843.99 84.9939C854.222 95.7839 874.241 110.334 876.179 108.386C876.899 107.664 875.009 105.739 871.977 104.111C868.943 102.482 858.454 93.7724 848.667 84.7591C838.88 75.7432 829.373 68.3686 827.539 68.3686C825.708 68.3686 813.484 79.0258 800.376 92.0545C787.27 105.081 772.836 117.28 768.304 119.166C760.381 122.459 759.593 122.214 747.979 112.843C720.15 90.3927 701.135 72.2486 683.451 51.2684C655.804 18.4722 640.175 2 636.701 2C635.01 2 619.431 16.647 602.088 34.5461ZM671.909 57.5964C712.397 107.123 735.115 127.079 751.003 127.079C760.027 127.079 765.145 130.959 765.145 137.8C765.145 140.718 763.258 142.395 759.979 142.395C752.301 142.395 751.237 148.863 757.466 157.645C762.289 164.44 762.617 166.52 760.091 174.201C756.319 185.675 759.053 190.655 776.033 203.247C800.213 221.175 801.065 226.701 779.619 226.52C762.647 226.377 750.619 221.968 736.804 210.829C718.629 196.177 712.588 196.309 709.506 211.434C705.492 231.137 696.326 219.74 682.332 177.637C677.339 162.622 668.867 143.521 663.501 135.186C648.085 111.253 647.353 109.229 645.336 84.9607C644.285 72.3252 642.589 52.9021 641.567 41.8007C640.221 27.2149 640.491 22.102 642.536 23.3707C644.092 24.3356 657.31 39.7382 671.909 57.5964ZM514.893 118.441C518.39 119.322 522.744 118.576 524.985 116.71C528.365 113.895 533.628 118.114 562.042 146.418C592.802 177.06 627.644 216.422 624.007 216.422C623.14 216.422 598.998 198.637 570.357 176.904C516.457 136.003 508.814 130.781 506.396 133.208C504.63 134.98 526.023 170.801 539.599 188.799L549.603 202.066L544.15 206.497C523.444 223.324 386.18 245.514 386.18 232.036C386.18 230.921 396.437 224.429 408.976 217.609C445.835 197.555 459.818 180.557 463.684 151.11C465.259 139.112 461.688 86.0073 458.3 71.0233C457.194 66.1248 463.178 70.9391 482.788 90.7169C497.061 105.114 511.51 117.589 514.893 118.441ZM828.729 85.9843C828.729 87.2479 831.581 94.4285 835.062 101.938C840.279 113.185 841.401 119.521 841.421 137.872C841.444 157.754 842.367 162.15 850.002 178.714C854.708 188.925 859.38 200.715 860.382 204.919C862.358 213.221 866.196 218.974 869.752 218.974C870.988 218.974 871.876 203.587 871.723 184.779C871.456 151.96 871.72 150.107 878.331 138.788C885.323 126.816 893.319 119.421 899.276 119.421C904.65 119.421 911.718 133.691 921.701 164.69C927.357 182.247 934.285 198.134 939.069 204.521C953.289 223.495 983.218 233.83 1016.61 231.303L1027.72 230.461L1008.14 213.869C997.193 204.595 981.898 188.067 973.456 176.396C965.149 164.912 953.511 151.743 947.59 147.128C941.669 142.515 930.587 133.244 922.962 126.528C912.081 116.94 907.163 114.298 900.072 114.232L891.043 114.145L897.047 109.127C900.349 106.365 904.97 104.105 907.315 104.105C912.056 104.105 962.901 153.147 982.47 176.598C998.73 196.082 1030.39 216.761 1065.02 230.507C1090 240.424 1113.6 253.496 1153.81 279.686C1192.93 305.169 1240.04 308.697 1364.11 295.438C1426.02 288.819 1502 289.409 1525.62 296.692C1547.94 303.569 1550.71 304.048 1543.37 299.752C1539.84 297.69 1527.82 293.937 1516.66 291.415C1492.93 286.055 1423.6 285.386 1382.75 290.124C1240.11 306.673 1196.01 303.724 1151.37 274.647C1113.2 249.785 1090.47 237.22 1067.74 228.409C1025.48 212.031 995.467 190.691 973.263 161.226C963.247 147.937 911.827 99.0002 907.877 99.0002C906.689 99.0002 902.516 101.527 898.604 104.616C889.834 111.539 873.117 112.902 864.337 107.409C860.84 105.221 852.149 98.9874 845.028 93.558C831.69 83.3908 828.729 82.015 828.729 85.9843ZM862.409 110.051C866.247 112.448 874.368 115.095 880.457 115.932L891.531 117.456L885.498 123.988C869.49 141.323 868.114 146.099 868.625 182.599C868.885 201.203 868.696 216.422 868.208 216.422C867.72 216.422 864.947 209.044 862.043 200.026C859.141 191.007 854.265 179.378 851.211 174.18C846.782 166.648 845.328 158.972 844.038 136.333C842.95 117.259 841.006 105.252 838.117 99.766C831.84 87.8452 832.644 87.5134 844.626 97.0704C850.57 101.813 858.574 107.654 862.409 110.051ZM361.087 120.871C368.178 124.478 375.579 126.811 377.535 126.058C383.667 123.697 381.607 127.363 363.126 151.72C332.367 192.253 291.805 229.764 285.533 223.472C284.823 222.76 287.15 216.69 290.703 209.984C300.506 191.48 298.969 187.773 282.536 190.295C277.991 190.992 274.27 190.745 274.27 189.744C274.27 188.246 345.18 115.444 347.477 114.587C347.874 114.436 353.998 117.267 361.087 120.871ZM932.406 138.678C947.831 151.618 962.489 166.523 968.448 175.332C973.972 183.495 988.002 199.066 999.625 209.93L1020.76 229.685L1000.41 227.936C971.335 225.44 962.044 222.474 950.484 211.99C937.808 200.498 933.179 191.464 923.049 158.454C918.486 143.59 912.254 129.058 908.544 124.631C897.365 111.299 905.423 116.042 932.406 138.678Z" fill="#D9D9D9"/>
<path fill-rule="evenodd" clip-rule="evenodd" d="M602.088 34.5461C584.742 52.4452 564.832 73.7776 557.846 81.9511C550.859 90.1221 541.398 99.6741 536.822 103.179L528.505 109.55L512.66 95.7533C487.885 74.1784 462.83 55.7892 455.795 54.0177C450.665 52.726 447.47 54.2652 439.924 61.6602C434.636 66.8421 427.912 70.9212 424.659 70.9212C417.952 70.9212 401.455 86.6174 389.107 104.744C384.565 111.414 379.714 116.869 378.328 116.869C376.939 116.869 369.856 112.848 362.587 107.934C355.316 103.021 347.947 99.0002 346.213 99.0002C344.476 99.0002 334.732 107.792 324.558 118.538C305.201 138.987 240.288 192.621 215.06 209.011C206.975 214.265 191.526 222.252 180.732 226.762C157.264 236.567 151.013 240.705 126.929 262.369C116.786 271.495 106.015 280.01 102.996 281.289C99.9745 282.571 77.4756 284.322 52.9955 285.182C23.304 286.226 6.79227 287.844 3.39939 290.05C-1.36438 293.141 -1.28299 293.238 4.67109 291.581C8.16825 290.606 31.0588 289.072 55.5389 288.171C103.301 286.415 109.039 284.95 121.667 271.293C135.857 255.949 159.973 239.293 181.521 229.953C194.065 224.518 211.767 215.023 220.859 208.856C251.121 188.33 310.252 139.066 327.29 120.187C336.538 109.938 345.005 101.553 346.106 101.553C347.207 101.553 354.385 105.737 362.056 110.85C382.016 124.149 379.875 128.754 359.474 116.402C355.277 113.862 350.572 111.779 349.018 111.774C345.427 111.761 269.184 187.23 269.184 190.793C269.184 192.276 274.794 193.448 281.901 193.448C288.895 193.448 294.613 194.308 294.605 195.362C294.597 196.417 291.772 201.872 288.325 207.487C281.837 218.06 279.912 229.185 284.571 229.185C295.365 229.185 324.317 203.686 354.184 167.878C375.157 142.729 384.524 128.399 382.939 123.883C381.451 119.643 399.843 93.3844 412.061 82.306C417.418 77.4483 424.084 73.4738 426.874 73.4738C429.664 73.4738 436.518 69.3284 442.109 64.2588C447.697 59.1918 453.709 55.6028 455.469 56.2844C460.871 58.375 498.58 87.2581 512.919 100.287C524.194 110.533 525.786 112.994 522.388 114.903C516.076 118.449 503.682 109.338 481.6 84.9275C459.635 60.6443 453.442 57.747 455.772 72.8357C459.63 97.8183 460.594 155.176 457.351 166.801C452.883 182.819 436.01 199.365 409.65 213.575C398.23 219.732 387.039 226.821 384.778 229.328C377.542 237.353 388.092 240.37 416.772 238.484C477.261 234.507 548.791 215.931 550.879 203.658C551.238 201.552 544.541 190.066 535.996 178.132C518.97 154.357 508.323 135.485 513.797 138.786C515.648 139.901 542.089 159.549 572.557 182.446C638.316 231.873 642.531 233.869 620.952 205.379C614.388 196.71 591.777 172.149 570.71 150.796L532.404 111.975L554.033 89.3206C629.775 9.98718 635.236 4.63689 638.993 6.08424C641.127 6.90618 652.002 18.7836 663.157 32.4759C688.484 63.5645 712.578 88.2051 736.966 107.96C749.254 117.915 754.424 123.526 751.782 124.039C738.757 126.569 710.922 101.755 671.444 52.4146C647.505 22.4977 638.537 14.7121 637.627 23.0593C637.144 27.4881 637.388 31.8148 640.305 70.1937C643.014 105.849 643.828 108.425 661.794 138.237C666.759 146.477 674.882 165.43 679.842 180.355C690.552 212.572 696.949 224.079 704.147 224.079C709.452 224.079 710.152 223 712.842 210.678C714.933 201.09 721.228 201.677 733.996 212.646C739.752 217.588 749.256 223.332 755.121 225.409C769.128 230.369 790.726 230.308 797.087 225.289C801.841 221.54 801.564 220.996 789.577 210.612C758.234 183.459 759.87 185.721 763.113 173.989C765.722 164.549 765.458 162.745 760.531 156.46C754.46 148.713 755.213 144.948 762.83 144.948C769.649 144.948 771.526 138.729 766.765 131.909C762.996 126.51 763.308 125.997 774.805 118.689C781.382 114.507 795.472 101.923 806.114 90.7195C827.791 67.904 827.783 67.904 843.99 84.9939C854.222 95.7839 874.241 110.334 876.179 108.386C876.899 107.664 875.009 105.739 871.977 104.111C868.943 102.482 858.454 93.7724 848.667 84.7591C838.88 75.7432 829.373 68.3686 827.539 68.3686C825.708 68.3686 813.484 79.0258 800.376 92.0545C787.27 105.081 772.836 117.28 768.304 119.166C760.381 122.459 759.593 122.214 747.979 112.843C720.15 90.3927 701.135 72.2486 683.451 51.2684C655.804 18.4722 640.175 2 636.701 2C635.01 2 619.431 16.647 602.088 34.5461ZM671.909 57.5964C712.397 107.123 735.115 127.079 751.003 127.079C760.027 127.079 765.145 130.959 765.145 137.8C765.145 140.718 763.258 142.395 759.979 142.395C752.301 142.395 751.237 148.863 757.466 157.645C762.289 164.44 762.617 166.52 760.091 174.201C756.319 185.675 759.053 190.655 776.033 203.247C800.213 221.175 801.065 226.701 779.619 226.52C762.647 226.377 750.619 221.968 736.804 210.829C718.629 196.177 712.588 196.309 709.506 211.434C705.492 231.137 696.326 219.74 682.332 177.637C677.339 162.622 668.867 143.521 663.501 135.186C648.085 111.253 647.353 109.229 645.336 84.9607C644.285 72.3252 642.589 52.9021 641.567 41.8007C640.221 27.2149 640.491 22.102 642.536 23.3707C644.092 24.3356 657.31 39.7382 671.909 57.5964ZM514.893 118.441C518.39 119.322 522.744 118.576 524.985 116.71C528.365 113.895 533.628 118.114 562.042 146.418C592.802 177.06 627.644 216.422 624.007 216.422C623.14 216.422 598.998 198.637 570.357 176.904C516.457 136.003 508.814 130.781 506.396 133.208C504.63 134.98 526.023 170.801 539.599 188.799L549.603 202.066L544.15 206.497C523.444 223.324 386.18 245.514 386.18 232.036C386.18 230.921 396.437 224.429 408.976 217.609C445.835 197.555 459.818 180.557 463.684 151.11C465.259 139.112 461.688 86.0073 458.3 71.0233C457.194 66.1248 463.178 70.9391 482.788 90.7169C497.061 105.114 511.51 117.589 514.893 118.441ZM828.729 85.9843C828.729 87.2479 831.581 94.4285 835.062 101.938C840.279 113.185 841.401 119.521 841.421 137.872C841.444 157.754 842.367 162.15 850.002 178.714C854.708 188.925 859.38 200.715 860.382 204.919C862.358 213.221 866.196 218.974 869.752 218.974C870.988 218.974 871.876 203.587 871.723 184.779C871.456 151.96 871.72 150.107 878.331 138.788C885.323 126.816 893.319 119.421 899.276 119.421C904.65 119.421 911.718 133.691 921.701 164.69C927.357 182.247 934.285 198.134 939.069 204.521C953.289 223.495 983.218 233.83 1016.61 231.303L1027.72 230.461L1008.14 213.869C997.193 204.595 981.898 188.067 973.456 176.396C965.149 164.912 953.511 151.743 947.59 147.128C941.669 142.515 930.587 133.244 922.962 126.528C912.081 116.94 907.163 114.298 900.072 114.232L891.043 114.145L897.047 109.127C900.349 106.365 904.97 104.105 907.315 104.105C912.056 104.105 962.901 153.147 982.47 176.598C998.73 196.082 1030.39 216.761 1065.02 230.507C1090 240.424 1113.6 253.496 1153.81 279.686C1192.93 305.169 1240.04 308.697 1364.11 295.438C1426.02 288.819 1502 289.409 1525.62 296.692C1547.94 303.569 1550.71 304.048 1543.37 299.752C1539.84 297.69 1527.82 293.937 1516.66 291.415C1492.93 286.055 1423.6 285.386 1382.75 290.124C1240.11 306.673 1196.01 303.724 1151.37 274.647C1113.2 249.785 1090.47 237.22 1067.74 228.409C1025.48 212.031 995.467 190.691 973.263 161.226C963.247 147.937 911.827 99.0002 907.877 99.0002C906.689 99.0002 902.516 101.527 898.604 104.616C889.834 111.539 873.117 112.902 864.337 107.409C860.84 105.221 852.149 98.9874 845.028 93.558C831.69 83.3908 828.729 82.015 828.729 85.9843ZM862.409 110.051C866.247 112.448 874.368 115.095 880.457 115.932L891.531 117.456L885.498 123.988C869.49 141.323 868.114 146.099 868.625 182.599C868.885 201.203 868.696 216.422 868.208 216.422C867.72 216.422 864.947 209.044 862.043 200.026C859.141 191.007 854.265 179.378 851.211 174.18C846.782 166.648 845.328 158.972 844.038 136.333C842.95 117.259 841.006 105.252 838.117 99.766C831.84 87.8452 832.644 87.5134 844.626 97.0704C850.57 101.813 858.574 107.654 862.409 110.051ZM361.087 120.871C368.178 124.478 375.579 126.811 377.535 126.058C383.667 123.697 381.607 127.363 363.126 151.72C332.367 192.253 291.805 229.764 285.533 223.472C284.823 222.76 287.15 216.69 290.703 209.984C300.506 191.48 298.969 187.773 282.536 190.295C277.991 190.992 274.27 190.745 274.27 189.744C274.27 188.246 345.18 115.444 347.477 114.587C347.874 114.436 353.998 117.267 361.087 120.871ZM932.406 138.678C947.831 151.618 962.489 166.523 968.448 175.332C973.972 183.495 988.002 199.066 999.625 209.93L1020.76 229.685L1000.41 227.936C971.335 225.44 962.044 222.474 950.484 211.99C937.808 200.498 933.179 191.464 923.049 158.454C918.486 143.59 912.254 129.058 908.544 124.631C897.365 111.299 905.423 116.042 932.406 138.678Z" stroke="#D9D9D9" stroke-width="4" mask="url(#path-1-outside-1_167_122)"/>
</svg>
